<?xml version="1.0" standalone="yes"?>
<svg xmlns="http://www.w3.org/2000/svg" width="69" height="77">
<path style="fill:#32a7df; stroke:none;" d="M0 0L0 77L69 77L69 0L0 0z"/>
<path style="fill:#62b3e3; stroke:none;" d="M19 14L16 13L15 19C18.662 19.192 21.2167 18.8258 22 15L38 14L38 8C32.3763 8 20.4833 6.9929 19 14z"/>
<path style="fill:#9ccaec; stroke:none;" d="M19 12L19 13L24 14L19 12M17.6667 13.3333L18.3333 13.6667L17.6667 13.3333z"/>
<path style="fill:#62b3e3; stroke:none;" d="M57 13L58 14L57 13z"/>
<path style="fill:#cde3f6; stroke:none;" d="M58 13L55 17L58 13z"/>
<path style="fill:#62b3e3; stroke:none;" d="M59 13L60 14L59 13z"/>
<path style="fill:#9ccaec; stroke:none;" d="M16 14L17 15L16 14z"/>
<path style="fill:#fefeff; stroke:none;" d="M35 41L34 41L22 31L16 38L16 39L37 55L66 19C53.8738 10.1971 41.7615 31.3635 35 41z"/>
<path style="fill:#9ccaec; stroke:none;" d="M60 14L61 15L60 14z"/>
<path style="fill:#62b3e3; stroke:none;" d="M13 15L10 19L13 15z"/>
<path style="fill:#9ccaec; stroke:none;" d="M53 68L50 64L50 63L57 56L48 65C40.6276 64.7762 34.5631 67.8294 27 65.3657C3.38323 57.6727 7.2437 34.746 18 19L16 15C-0.497301 22.7584 -0.547071 48.233 9.52932 60.9853C19.9689 74.1973 38.9496 75.9867 53 68M22.6667 15.3333L23.3333 15.6667L22.6667 15.3333M61 15L62 16L61 15M18 19L22 17L18 19z"/>
<path style="fill:#cde3f6; stroke:none;" d="M62 16L63 17L62 16z"/>
<path style="fill:#9ccaec; stroke:none;" d="M54 17L55 18L54 17z"/>
<path style="fill:#cde3f6; stroke:none;" d="M63 17L64 18L63 17z"/>
<path style="fill:#62b3e3; stroke:none;" d="M64 17L65 18L64 17z"/>
<path style="fill:#9ccaec; stroke:none;" d="M53 18L54 19L53 18z"/>
<path style="fill:#62b3e3; stroke:none;" d="M65 18L66 19L65 18M52 19L53 20L52 19M66 19L67 20L66 19M51 20L52 21L51 20z"/>
<path style="fill:#cde3f6; stroke:none;" d="M65 20L66 21L65 20z"/>
<path style="fill:#62b3e3; stroke:none;" d="M8 21L9 22L8 21z"/>
<path style="fill:#cde3f6; stroke:none;" d="M51 21L52 22L51 21z"/>
<path style="fill:#62b3e3; stroke:none;" d="M65 21L66 22L65 21M7 22L8 23L7 22z"/>
<path style="fill:#cde3f6; stroke:none;" d="M50 22L51 23L50 22z"/>
<path style="fill:#62b3e3; stroke:none;" d="M64 22L65 23L64 22M14 23L15 24L14 23z"/>
<path style="fill:#9ccaec; stroke:none;" d="M49 23L50 24L49 23z"/>
<path style="fill:#62b3e3; stroke:none;" d="M63 23L64 24L63 23M6 24L7 25L6 24M13 24L14 25L13 24z"/>
<path style="fill:#9ccaec; stroke:none;" d="M48 24L49 25L48 24M62 24L63 25L62 24z"/>
<path style="fill:#62b3e3; stroke:none;" d="M47 25L48 26L47 25z"/>
<path style="fill:#cde3f6; stroke:none;" d="M61 25L62 26L61 25z"/>
<path style="fill:#62b3e3; stroke:none;" d="M46 26L47 27L46 26z"/>
<path style="fill:#cde3f6; stroke:none;" d="M60 26L61 27L60 26z"/>
<path style="fill:#62b3e3; stroke:none;" d="M11 27L12 28L11 27M4 28L5 29L4 28z"/>
<path style="fill:#cde3f6; stroke:none;" d="M45 28L46 29L45 28z"/>
<path style="fill:#62b3e3; stroke:none;" d="M59 28L60 29L59 28M10 29L11 30L10 29z"/>
<path style="fill:#9ccaec; stroke:none;" d="M44 29L45 30L44 29M58 29L59 30L58 29z"/>
<path style="fill:#62b3e3; stroke:none;" d="M22 30L23 31L22 30z"/>
<path style="fill:#9ccaec; stroke:none;" d="M43 30L44 31L43 30M57 30L58 31L57 30z"/>
<path style="fill:#62b3e3; stroke:none;" d="M3.33333 31.6667L3.66667 32.3333L3.33333 31.6667z"/>
<path style="fill:#9ccaec; stroke:none;" d="M21 31L22 32L21 31M23 31L24 32L23 31z"/>
<path style="fill:#62b3e3; stroke:none;" d="M42 31L43 32L42 31z"/>
<path style="fill:#9ccaec; stroke:none;" d="M56 31L57 32L56 31z"/>
<path style="fill:#62b3e3; stroke:none;" d="M9.33333 32.6667L9.66667 33.3333L9.33333 32.6667M20 32L19 34L20 32z"/>
<path style="fill:#cde3f6; stroke:none;" d="M24 32L25 33L24 32z"/>
<path style="fill:#62b3e3; stroke:none;" d="M41 32L40 34L41 32z"/>
<path style="fill:#cde3f6; stroke:none;" d="M55 32L56 33L55 32M20 33L21 34L20 33z"/>
<path style="fill:#62b3e3; stroke:none;" d="M26 33L27 34L26 33z"/>
<path style="fill:#cde3f6; stroke:none;" d="M41 33L42 34L41 33M54 33L53 35L54 33M19 34L20 35L19 34z"/>
<path style="fill:#62b3e3; stroke:none;" d="M27 34L28 35L27 34z"/>
<path style="fill:#cde3f6; stroke:none;" d="M40 34L41 35L40 34z"/>
<path style="fill:#62b3e3; stroke:none;" d="M54 34L55 35L54 34M2 35L2 39L3 39L2 35z"/>
<path style="fill:#cde3f6; stroke:none;" d="M18 35L19 36L18 35z"/>
<path style="fill:#9ccaec; stroke:none;" d="M28 35L29 36L28 35z"/>
<path style="fill:#cde3f6; stroke:none;" d="M39 35L40 36L39 35z"/>
<path style="fill:#62b3e3; stroke:none;" d="M53 35L54 36L53 35z"/>
<path style="fill:#9ccaec; stroke:none;" d="M17 36L18 37L17 36z"/>
<path style="fill:#cde3f6; stroke:none;" d="M29 36L30 37L29 36z"/>
<path style="fill:#9ccaec; stroke:none;" d="M38 36L39 37L38 36M52 36L53 37L52 36z"/>
<path style="fill:#62b3e3; stroke:none;" d="M8 37L8 43L9 43L8 37z"/>
<path style="fill:#9ccaec; stroke:none;" d="M16 37L17 38L16 37z"/>
<path style="fill:#cde3f6; stroke:none;" d="M30 37L32 39L30 37z"/>
<path style="fill:#62b3e3; stroke:none;" d="M31 37L32 38L31 37z"/>
<path style="fill:#9ccaec; stroke:none;" d="M37 37L38 38L37 37M51 37L52 38L51 37z"/>
<path style="fill:#62b3e3; stroke:none;" d="M15 38L16 39L15 38M32 38L33 39L32 38M36 38L37 39L36 38z"/>
<path style="fill:#cde3f6; stroke:none;" d="M50 38L51 39L50 38z"/>
<path style="fill:#9ccaec; stroke:none;" d="M16 39L17 40L16 39M33 39L34 40L33 39z"/>
<path style="fill:#cde3f6; stroke:none;" d="M49 39L50 40L49 39z"/>
<path style="fill:#62b3e3; stroke:none;" d="M61 43L62 43L62 40L68 40C64.501 38.5833 62.1932 39.404 61 43M17 40L18 41L17 40z"/>
<path style="fill:#9ccaec; stroke:none;" d="M34 40L35 41L34 40z"/>
<path style="fill:#cde3f6; stroke:none;" d="M48 40L49 41L48 40M62 40C61.5601 49.6026 56.5601 56.3844 50 63L50 64L53 67L54 67C62.6034 59.8454 67.1128 51.1486 68 40L62 40z"/>
<path style="fill:#62b3e3; stroke:none;" d="M2 41L2 46L3 46L2 41M18 41L19 42L18 41z"/>
<path style="fill:#cde3f6; stroke:none;" d="M19 41L20 42L19 41z"/>
<path style="fill:#62b3e3; stroke:none;" d="M48 41L49 42L48 41z"/>
<path style="fill:#cde3f6; stroke:none;" d="M20 42L21 43L20 42z"/>
<path style="fill:#62b3e3; stroke:none;" d="M47 42L48 43L47 42z"/>
<path style="fill:#9ccaec; stroke:none;" d="M21 43L22 44L21 43M46 43L47 44L46 43M61 43L61 46L62 46L61 43z"/>
<path style="fill:#62b3e3; stroke:none;" d="M22 44L23 45L22 44z"/>
<path style="fill:#9ccaec; stroke:none;" d="M45 44L46 45L45 44M67.3333 44.6667L67.6667 45.3333L67.3333 44.6667z"/>
<path style="fill:#62b3e3; stroke:none;" d="M23 45L24 46L23 45z"/>
<path style="fill:#cde3f6; stroke:none;" d="M24 45L25 46L24 45M44 45L45 46L44 45M25 46L26 47L25 46z"/>
<path style="fill:#62b3e3; stroke:none;" d="M67 46L68 47L67 46M9 47L10 48L9 47z"/>
<path style="fill:#9ccaec; stroke:none;" d="M26 47L27 48L26 47z"/>
<path style="fill:#62b3e3; stroke:none;" d="M60 47L61 48L60 47M3 48L3 51L4 51L3 48z"/>
<path style="fill:#9ccaec; stroke:none;" d="M27 48L28 49L27 48z"/>
<path style="fill:#62b3e3; stroke:none;" d="M42 48L43 49L42 48z"/>
<path style="fill:#9ccaec; stroke:none;" d="M60 48L61 49L60 48z"/>
<path style="fill:#62b3e3; stroke:none;" d="M28 49L29 50L28 49z"/>
<path style="fill:#9ccaec; stroke:none;" d="M41 49L42 50L41 49M66 49L67 50L66 49z"/>
<path style="fill:#62b3e3; stroke:none;" d="M10 50L11 51L10 50z"/>
<path style="fill:#cde3f6; stroke:none;" d="M30 50L31 51L30 50z"/>
<path style="fill:#9ccaec; stroke:none;" d="M40 50L41 51L40 50z"/>
<path style="fill:#62b3e3; stroke:none;" d="M59 50L60 51L59 50M66 50L67 51L66 50z"/>
<path style="fill:#9ccaec; stroke:none;" d="M31 51L32 52L31 51z"/>
<path style="fill:#cde3f6; stroke:none;" d="M39 51L40 52L39 51z"/>
<path style="fill:#62b3e3; stroke:none;" d="M4 52L5 53L4 52M11 52L12 53L11 52z"/>
<path style="fill:#9ccaec; stroke:none;" d="M32 52L33 53L32 52z"/>
<path style="fill:#cde3f6; stroke:none;" d="M38 52L37 54L38 52z"/>
<path style="fill:#62b3e3; stroke:none;" d="M58 52L59 53L58 52z"/>
<path style="fill:#9ccaec; stroke:none;" d="M65 52L66 53L65 52z"/>
<path style="fill:#62b3e3; stroke:none;" d="M33 53L34 54L33 53M38 53L39 54L38 53z"/>
<path style="fill:#9ccaec; stroke:none;" d="M58 53L59 54L58 53z"/>
<path style="fill:#62b3e3; stroke:none;" d="M65 53L66 54L65 53M5 54L6 55L5 54M34 54L35 55L34 54z"/>
<path style="fill:#cde3f6; stroke:none;" d="M35 54L36 55L35 54z"/>
<path style="fill:#62b3e3; stroke:none;" d="M37 54L38 55L37 54z"/>
<path style="fill:#9ccaec; stroke:none;" d="M57 54L58 55L57 54M64 54L65 55L64 54z"/>
<path style="fill:#62b3e3; stroke:none;" d="M13 55L14 56L13 55M36 55L37 56L36 55M56 55L57 56L56 55M64 55L65 56L64 55M6 56L7 57L6 56z"/>
<path style="fill:#9ccaec; stroke:none;" d="M63 56L64 57L63 56z"/>
<path style="fill:#62b3e3; stroke:none;" d="M15 58L16 59L15 58M62 58L63 59L62 58M8 59L9 60L8 59M16 59L17 60L16 59z"/>
<path style="fill:#9ccaec; stroke:none;" d="M61 59L62 60L61 59M60 60L61 61L60 60z"/>
<path style="fill:#62b3e3; stroke:none;" d="M50 61L51 62L50 61M49 62L50 63L49 62M59 62L60 63L59 62M22 63L23 64L22 63M47 63L48 64L47 63M58 63L59 64L58 63M24 64L25 65L24 64M45 64L46 65L45 64z"/>
<path style="fill:#cde3f6; stroke:none;" d="M47 64L48 65L47 64z"/>
<path style="fill:#62b3e3; stroke:none;" d="M57 64L58 65L57 64M26.6667 65.3333L27.3333 65.6667L26.6667 65.3333M42.6667 65.3333L43.3333 65.6667L42.6667 65.3333z"/>
<path style="fill:#9ccaec; stroke:none;" d="M55 65L56 66L55 65z"/>
<path style="fill:#62b3e3; stroke:none;" d="M56 65L57 66L56 65M15 66L16 67L15 66M32.6667 66.3333L33.3333 66.6667L32.6667 66.3333M36 66L36 67L39 67L36 66z"/>
<path style="fill:#9ccaec; stroke:none;" d="M54 66L55 67L54 66z"/>
<path style="fill:#62b3e3; stroke:none;" d="M16 67L17 68L16 67z"/>
<path style="fill:#cde3f6; stroke:none;" d="M51 67L52 68L51 67z"/>
<path style="fill:#62b3e3; stroke:none;" d="M53 67L54 68L53 67z"/>
<path style="fill:#cde3f6; stroke:none;" d="M49 68L50 69L49 68z"/>
<path style="fill:#62b3e3; stroke:none;" d="M19.6667 69.3333L20.3333 69.6667L19.6667 69.3333M50 69L51 70L50 69M22 70L23 71L22 70M24 71L25 72L24 71M45 71L46 72L45 71M27 72L27 73L30 73L27 72M40 72L40 73L43 73L40 72z"/>
</svg>
